<svg width="259" height="46" viewBox="0 0 259 46" fill="none" xmlns="http://www.w3.org/2000/svg">
<path d="M38.458 27.24C38.9646 27.64 39.8313 28.1867 41.058 28.88C42.3113 29.5733 43.498 29.92 44.618 29.92C45.7646 29.92 46.338 29.48 46.338 28.6C46.338 28.2 46.178 27.8533 45.858 27.56C45.538 27.24 44.9513 26.88 44.098 26.48C43.2446 26.08 42.6046 25.7733 42.178 25.56C41.7513 25.32 41.178 24.9467 40.458 24.44C39.7646 23.9067 39.2313 23.36 38.858 22.8C37.7913 21.28 37.258 19.3467 37.258 17C37.258 14.6533 38.1246 12.68 39.858 11.08C41.618 9.45333 43.9113 8.64 46.738 8.64C48.658 8.64 50.4313 8.85333 52.058 9.28C53.6846 9.68 54.5246 10.2133 54.578 10.88C54.578 10.96 54.578 11.04 54.578 11.12C54.578 12.0533 54.2846 13.24 53.698 14.68C53.1113 16.0933 52.698 16.88 52.458 17.04C50.7513 16.16 49.218 15.72 47.858 15.72C46.5246 15.72 45.858 16.2 45.858 17.16C45.858 17.7467 46.3513 18.2667 47.338 18.72C47.5513 18.8267 47.858 18.9733 48.258 19.16C48.658 19.3467 49.1113 19.5733 49.618 19.84C50.1513 20.08 50.7113 20.4 51.298 20.8C51.9113 21.1733 52.5646 21.68 53.258 22.32C54.6713 23.6533 55.378 25.4133 55.378 27.6C55.378 30.4533 54.5913 32.7867 53.018 34.6C51.4446 36.4133 49.018 37.3467 45.738 37.4C44.138 37.4 42.6846 37.2667 41.378 37C40.098 36.7333 38.978 36.2133 38.018 35.44C37.058 34.6667 36.578 33.7333 36.578 32.64C36.578 31.5467 36.778 30.4667 37.178 29.4C37.578 28.3067 38.0046 27.5867 38.458 27.24ZM80.428 36.32C80.428 36.7733 79.0813 37 76.388 37C73.6946 37 72.348 36.7733 72.348 36.32V27.12H66.748V36.32C66.748 36.7733 65.4013 37 62.708 37C60.0146 37 58.668 36.7733 58.668 36.32V9.8C58.668 9.24 60.0146 8.96 62.708 8.96C65.4013 8.96 66.748 9.24 66.748 9.8V19.2H72.348V9.88C72.348 9.50667 73.0146 9.24 74.348 9.08C75.0413 9.02667 75.7213 9 76.388 9L78.428 9.08C79.7613 9.24 80.428 9.50667 80.428 9.88V36.32ZM96.2902 37.4C92.5568 37.4 89.5035 36.1733 87.1302 33.72C84.7835 31.2667 83.6102 27.6933 83.6102 23C83.6102 18.28 84.7968 14.7067 87.1702 12.28C89.5702 9.85333 92.6502 8.64 96.4102 8.64C100.197 8.64 103.25 9.84 105.57 12.24C107.89 14.6133 109.05 18.2267 109.05 23.08C109.05 27.9067 107.863 31.5067 105.49 33.88C103.117 36.2267 100.05 37.4 96.2902 37.4ZM96.3302 16.32C95.0502 16.32 93.9702 16.9067 93.0902 18.08C92.2368 19.2533 91.8102 20.9067 91.8102 23.04C91.8102 25.1467 92.2235 26.7733 93.0502 27.92C93.8768 29.04 94.9568 29.6 96.2902 29.6C97.6502 29.6 98.7435 29.0267 99.5702 27.88C100.423 26.7333 100.85 25.0933 100.85 22.96C100.85 20.8267 100.41 19.1867 99.5302 18.04C98.6768 16.8933 97.6102 16.32 96.3302 16.32ZM115.742 37.08C113.315 37.08 112.102 36.8133 112.102 36.28V10.36C112.102 9.45333 112.515 9 113.342 9H120.382C124.328 9 127.168 9.81333 128.902 11.44C130.662 13.0667 131.542 15.4267 131.542 18.52C131.542 21.08 130.715 23.4267 129.062 25.56C128.235 26.6267 127.022 27.48 125.422 28.12C123.822 28.76 121.955 29.08 119.822 29.08V36.24C119.822 36.56 119.315 36.7867 118.302 36.92C117.315 37.0267 116.462 37.08 115.742 37.08ZM119.822 15.96V22.28H120.342C121.275 22.28 122.062 21.9867 122.702 21.4C123.342 20.8133 123.662 19.9867 123.662 18.92C123.662 17.8533 123.435 17.0933 122.982 16.64C122.555 16.1867 121.782 15.96 120.662 15.96H119.822ZM147.114 36.36C147.114 36.8933 145.794 37.16 143.154 37.16C140.514 37.16 139.194 36.8933 139.194 36.36V16.28H134.394C133.941 16.28 133.621 15.6667 133.434 14.44C133.354 13.8533 133.314 13.2533 133.314 12.64C133.314 12.0267 133.354 11.4267 133.434 10.84C133.621 9.61333 133.941 9 134.394 9H151.794C152.248 9 152.568 9.61333 152.754 10.84C152.834 11.4267 152.874 12.0267 152.874 12.64C152.874 13.2533 152.834 13.8533 152.754 14.44C152.568 15.6667 152.248 16.28 151.794 16.28H147.114V36.36ZM176.912 36.32C176.912 36.7733 175.566 37 172.872 37C170.179 37 168.832 36.7733 168.832 36.32V27.12H163.232V36.32C163.232 36.7733 161.886 37 159.192 37C156.499 37 155.152 36.7733 155.152 36.32V9.8C155.152 9.24 156.499 8.96 159.192 8.96C161.886 8.96 163.232 9.24 163.232 9.8V19.2H168.832V9.88C168.832 9.50667 169.499 9.24 170.832 9.08C171.526 9.02667 172.206 9 172.872 9L174.912 9.08C176.246 9.24 176.912 9.50667 176.912 9.88V36.32ZM188.535 36.44C188.535 36.8667 187.268 37.08 184.735 37.08C182.175 37.08 180.895 36.88 180.895 36.48V10.4C180.895 9.46667 181.388 9 182.375 9H190.015C197.028 9 200.535 11.7333 200.535 17.2C200.535 18.8533 200.215 20.36 199.575 21.72C198.935 23.0533 198.028 24.12 196.855 24.92L201.895 33.32C201.681 33.96 200.988 34.6933 199.815 35.52C198.215 36.6667 196.895 37.24 195.855 37.24C194.815 37.24 194.041 36.8667 193.535 36.12L189.775 27.36H188.535V36.44ZM188.535 16.08V22.08H188.735C191.268 22.08 192.535 21.0267 192.535 18.92C192.535 17.96 192.281 17.2533 191.775 16.8C191.295 16.32 190.495 16.08 189.375 16.08H188.535ZM207.128 30.12V15.88H204.288C203.835 15.88 203.515 15.3067 203.328 14.16C203.248 13.6 203.208 13.0267 203.208 12.44C203.208 11.8533 203.248 11.28 203.328 10.72C203.515 9.57333 203.835 9 204.288 9H217.728C218.182 9 218.488 9.57333 218.648 10.72C218.755 11.28 218.808 11.8533 218.808 12.44C218.808 13.0267 218.755 13.6 218.648 14.16C218.488 15.3067 218.182 15.88 217.728 15.88H215.048V30.12H217.848C218.302 30.12 218.622 30.6933 218.808 31.84C218.915 32.4 218.968 32.9733 218.968 33.56C218.968 34.1467 218.915 34.72 218.808 35.28C218.622 36.4267 218.302 37 217.848 37H204.368C203.915 37 203.608 36.4267 203.448 35.28C203.342 34.72 203.288 34.1467 203.288 33.56C203.288 32.9733 203.342 32.4 203.448 31.84C203.608 30.6933 203.915 30.12 204.368 30.12H207.128ZM236.597 9C237.05 9 237.277 10.1867 237.277 12.56C237.277 14.9067 237.05 16.08 236.597 16.08H229.277V20.64H234.157C234.61 20.64 234.837 21.68 234.837 23.76C234.837 25.8133 234.623 26.84 234.197 26.84H229.277V36.48C229.277 36.8533 228.77 37.0933 227.757 37.2C226.77 37.3333 225.943 37.4 225.277 37.4L223.397 37.32C222.09 37.16 221.437 36.8933 221.437 36.52V10.04C221.437 9.61333 221.517 9.33333 221.677 9.2C221.863 9.06666 222.13 9 222.477 9H236.597ZM252.544 36.36C252.544 36.8933 251.224 37.16 248.584 37.16C245.944 37.16 244.624 36.8933 244.624 36.36V16.28H239.824C239.371 16.28 239.051 15.6667 238.864 14.44C238.784 13.8533 238.744 13.2533 238.744 12.64C238.744 12.0267 238.784 11.4267 238.864 10.84C239.051 9.61333 239.371 9 239.824 9H257.224C257.677 9 257.997 9.61333 258.184 10.84C258.264 11.4267 258.304 12.0267 258.304 12.64C258.304 13.2533 258.264 13.8533 258.184 14.44C257.997 15.6667 257.677 16.28 257.224 16.28H252.544V36.36Z" fill="black"/>
<rect y="9" width="32" height="28" rx="2" fill="black"/>
<circle cx="15.5" cy="23.5" r="3.5" fill="white"/>
</svg>
