<svg width="314" height="117" viewBox="0 0 314 117" fill="none" xmlns="http://www.w3.org/2000/svg">
<path d="M29.8242 11.8143C32.2721 9.39522 36.241 9.39522 38.6889 11.8144L83.1641 55.7662C85.612 58.1853 85.612 62.1075 83.1641 64.5267L55.1758 92.1857C52.7279 94.6048 48.759 94.6048 46.3111 92.1856L1.83595 48.2338C-0.611986 45.8146 -0.611981 41.8925 1.83595 39.4733L29.8242 11.8143Z" fill="white"/>
<path d="M90.104 64.0328C92.4471 61.6897 92.4471 57.8907 90.104 55.5475L70.4051 35.8487L77.4965 28.7574C79.8396 26.4142 83.6386 26.4142 85.9818 28.7574L112.772 55.5475C115.115 57.8907 115.115 61.6897 112.772 64.0328L70.2007 106.604C67.8575 108.947 64.0585 108.947 61.7154 106.604L54.624 99.5127L90.104 64.0328Z" fill="white"/>
<path d="M17 45C17 47.7614 14.7614 50 12 50C9.23858 50 7 47.7614 7 45C7 42.2386 9.23858 40 12 40C14.7614 40 17 42.2386 17 45Z" fill="black"/>
<path d="M75 10C75 15.5228 70.5228 20 65 20C59.4772 20 55 15.5228 55 10C55 4.47715 59.4772 0 65 0C70.5228 0 75 4.47715 75 10Z" fill="white"/>
<mask id="path-5-outside-1_1_22" maskUnits="userSpaceOnUse" x="111" y="73" width="209" height="42" fill="black">
<rect fill="white" x="111" y="73" width="209" height="42"/>
<path d="M136.648 87.24C136.648 90.0133 135.448 92.12 133.048 93.56C134.354 94.04 135.448 94.8667 136.328 96.04C137.208 97.2133 137.648 98.88 137.648 101.04C137.648 103.173 136.848 104.867 135.248 106.12C133.674 107.373 131.408 108 128.448 108H119.008C118.554 108 118.181 107.853 117.888 107.56C117.594 107.24 117.448 106.827 117.448 106.32V80.72C117.448 80.4267 117.488 80.24 117.568 80.16C117.674 80.0533 117.874 80 118.168 80H127.288C133.528 80 136.648 82.4133 136.648 87.24ZM125.128 86.48V91.72H125.328C127.888 91.72 129.168 90.8667 129.168 89.16C129.168 88.2267 128.914 87.5467 128.408 87.12C127.928 86.6933 127.114 86.48 125.968 86.48H125.128ZM125.128 96.44V101.64H125.848C126.994 101.64 127.834 101.427 128.368 101C128.901 100.573 129.168 99.8933 129.168 98.96C129.168 98.0267 128.914 97.3733 128.408 97C127.928 96.6267 127.114 96.44 125.968 96.44H125.128ZM153.838 80.8C153.838 80.2667 155.278 80 158.158 80C161.064 80 162.518 80.2667 162.518 80.8V99.16C162.518 101.88 161.544 104.107 159.598 105.84C157.651 107.547 154.958 108.4 151.518 108.4C148.104 108.4 145.318 107.52 143.158 105.76C141.024 103.973 139.958 101.573 139.958 98.56V80.84C139.958 80.3067 141.398 80.04 144.278 80.04C147.184 80.04 148.638 80.3067 148.638 80.84V98.88C148.638 99.4133 148.918 99.84 149.478 100.16C150.064 100.48 150.678 100.64 151.318 100.64C151.958 100.64 152.531 100.493 153.038 100.2C153.571 99.9067 153.838 99.4667 153.838 98.88V80.8ZM179.795 81.32C180.142 80.3867 181.848 79.92 184.915 79.92C185.688 79.92 186.595 79.9733 187.635 80.08C188.702 80.1867 189.195 80.32 189.115 80.48L180.795 97.2V106.96C180.795 107.413 180.062 107.733 178.595 107.92C177.848 108.027 177.115 108.08 176.395 108.08C175.675 108.08 174.955 108.04 174.235 107.96C172.768 107.773 172.035 107.44 172.035 106.96V97.44L163.435 80.56C163.328 80.4 163.875 80.2533 165.075 80.12C166.275 79.96 167.288 79.88 168.115 79.88C171.395 79.88 173.195 80.36 173.515 81.32L176.435 89.48L179.795 81.32ZM202.524 107.36C202.524 107.893 201.204 108.16 198.564 108.16C195.924 108.16 194.604 107.893 194.604 107.36V87.28H189.804C189.351 87.28 189.031 86.6667 188.844 85.44C188.764 84.8533 188.724 84.2533 188.724 83.64C188.724 83.0267 188.764 82.4267 188.844 81.84C189.031 80.6133 189.351 80 189.804 80H207.204C207.658 80 207.978 80.6133 208.164 81.84C208.244 82.4267 208.284 83.0267 208.284 83.64C208.284 84.2533 208.244 84.8533 208.164 85.44C207.978 86.6667 207.658 87.28 207.204 87.28H202.524V107.36ZM232.323 107.32C232.323 107.773 230.976 108 228.283 108C225.589 108 224.243 107.773 224.243 107.32V98.12H218.643V107.32C218.643 107.773 217.296 108 214.603 108C211.909 108 210.563 107.773 210.563 107.32V80.8C210.563 80.24 211.909 79.96 214.603 79.96C217.296 79.96 218.643 80.24 218.643 80.8V90.2H224.243V80.88C224.243 80.5067 224.909 80.24 226.243 80.08C226.936 80.0267 227.616 80 228.283 80L230.323 80.08C231.656 80.24 232.323 80.5067 232.323 80.88V107.32ZM243.945 107.44C243.945 107.867 242.678 108.08 240.145 108.08C237.585 108.08 236.305 107.88 236.305 107.48V81.4C236.305 80.4667 236.798 80 237.785 80H245.425C252.438 80 255.945 82.7333 255.945 88.2C255.945 89.8533 255.625 91.36 254.985 92.72C254.345 94.0533 253.438 95.12 252.265 95.92L257.305 104.32C257.091 104.96 256.398 105.693 255.225 106.52C253.625 107.667 252.305 108.24 251.265 108.24C250.225 108.24 249.451 107.867 248.945 107.12L245.185 98.36H243.945V107.44ZM243.945 87.08V93.08H244.145C246.678 93.08 247.945 92.0267 247.945 89.92C247.945 88.96 247.691 88.2533 247.185 87.8C246.705 87.32 245.905 87.08 244.785 87.08H243.945ZM262.538 101.12V86.88H259.698C259.245 86.88 258.925 86.3067 258.738 85.16C258.658 84.6 258.618 84.0267 258.618 83.44C258.618 82.8533 258.658 82.28 258.738 81.72C258.925 80.5733 259.245 80 259.698 80H273.138C273.592 80 273.898 80.5733 274.058 81.72C274.165 82.28 274.218 82.8533 274.218 83.44C274.218 84.0267 274.165 84.6 274.058 85.16C273.898 86.3067 273.592 86.88 273.138 86.88H270.458V101.12H273.258C273.712 101.12 274.032 101.693 274.218 102.84C274.325 103.4 274.378 103.973 274.378 104.56C274.378 105.147 274.325 105.72 274.218 106.28C274.032 107.427 273.712 108 273.258 108H259.778C259.325 108 259.018 107.427 258.858 106.28C258.752 105.72 258.698 105.147 258.698 104.56C258.698 103.973 258.752 103.4 258.858 102.84C259.018 101.693 259.325 101.12 259.778 101.12H262.538ZM292.007 80C292.46 80 292.687 81.1867 292.687 83.56C292.687 85.9067 292.46 87.08 292.007 87.08H284.687V91.64H289.567C290.02 91.64 290.247 92.68 290.247 94.76C290.247 96.8133 290.034 97.84 289.607 97.84H284.687V107.48C284.687 107.853 284.18 108.093 283.167 108.2C282.18 108.333 281.354 108.4 280.687 108.4L278.807 108.32C277.5 108.16 276.847 107.893 276.847 107.52V81.04C276.847 80.6133 276.927 80.3333 277.087 80.2C277.274 80.0667 277.54 80 277.887 80H292.007ZM307.954 107.36C307.954 107.893 306.634 108.16 303.994 108.16C301.354 108.16 300.034 107.893 300.034 107.36V87.28H295.234C294.781 87.28 294.461 86.6667 294.274 85.44C294.194 84.8533 294.154 84.2533 294.154 83.64C294.154 83.0267 294.194 82.4267 294.274 81.84C294.461 80.6133 294.781 80 295.234 80H312.634C313.087 80 313.407 80.6133 313.594 81.84C313.674 82.4267 313.714 83.0267 313.714 83.64C313.714 84.2533 313.674 84.8533 313.594 85.44C313.407 86.6667 313.087 87.28 312.634 87.28H307.954V107.36Z"/>
</mask>
<path d="M136.648 87.24C136.648 90.0133 135.448 92.12 133.048 93.56C134.354 94.04 135.448 94.8667 136.328 96.04C137.208 97.2133 137.648 98.88 137.648 101.04C137.648 103.173 136.848 104.867 135.248 106.12C133.674 107.373 131.408 108 128.448 108H119.008C118.554 108 118.181 107.853 117.888 107.56C117.594 107.24 117.448 106.827 117.448 106.32V80.72C117.448 80.4267 117.488 80.24 117.568 80.16C117.674 80.0533 117.874 80 118.168 80H127.288C133.528 80 136.648 82.4133 136.648 87.24ZM125.128 86.48V91.72H125.328C127.888 91.72 129.168 90.8667 129.168 89.16C129.168 88.2267 128.914 87.5467 128.408 87.12C127.928 86.6933 127.114 86.48 125.968 86.48H125.128ZM125.128 96.44V101.64H125.848C126.994 101.64 127.834 101.427 128.368 101C128.901 100.573 129.168 99.8933 129.168 98.96C129.168 98.0267 128.914 97.3733 128.408 97C127.928 96.6267 127.114 96.44 125.968 96.44H125.128ZM153.838 80.8C153.838 80.2667 155.278 80 158.158 80C161.064 80 162.518 80.2667 162.518 80.8V99.16C162.518 101.88 161.544 104.107 159.598 105.84C157.651 107.547 154.958 108.4 151.518 108.4C148.104 108.4 145.318 107.52 143.158 105.76C141.024 103.973 139.958 101.573 139.958 98.56V80.84C139.958 80.3067 141.398 80.04 144.278 80.04C147.184 80.04 148.638 80.3067 148.638 80.84V98.88C148.638 99.4133 148.918 99.84 149.478 100.16C150.064 100.48 150.678 100.64 151.318 100.64C151.958 100.64 152.531 100.493 153.038 100.2C153.571 99.9067 153.838 99.4667 153.838 98.88V80.8ZM179.795 81.32C180.142 80.3867 181.848 79.92 184.915 79.92C185.688 79.92 186.595 79.9733 187.635 80.08C188.702 80.1867 189.195 80.32 189.115 80.48L180.795 97.2V106.96C180.795 107.413 180.062 107.733 178.595 107.92C177.848 108.027 177.115 108.08 176.395 108.08C175.675 108.08 174.955 108.04 174.235 107.96C172.768 107.773 172.035 107.44 172.035 106.96V97.44L163.435 80.56C163.328 80.4 163.875 80.2533 165.075 80.12C166.275 79.96 167.288 79.88 168.115 79.88C171.395 79.88 173.195 80.36 173.515 81.32L176.435 89.48L179.795 81.32ZM202.524 107.36C202.524 107.893 201.204 108.16 198.564 108.16C195.924 108.16 194.604 107.893 194.604 107.36V87.28H189.804C189.351 87.28 189.031 86.6667 188.844 85.44C188.764 84.8533 188.724 84.2533 188.724 83.64C188.724 83.0267 188.764 82.4267 188.844 81.84C189.031 80.6133 189.351 80 189.804 80H207.204C207.658 80 207.978 80.6133 208.164 81.84C208.244 82.4267 208.284 83.0267 208.284 83.64C208.284 84.2533 208.244 84.8533 208.164 85.44C207.978 86.6667 207.658 87.28 207.204 87.28H202.524V107.36ZM232.323 107.32C232.323 107.773 230.976 108 228.283 108C225.589 108 224.243 107.773 224.243 107.32V98.12H218.643V107.32C218.643 107.773 217.296 108 214.603 108C211.909 108 210.563 107.773 210.563 107.32V80.8C210.563 80.24 211.909 79.96 214.603 79.96C217.296 79.96 218.643 80.24 218.643 80.8V90.2H224.243V80.88C224.243 80.5067 224.909 80.24 226.243 80.08C226.936 80.0267 227.616 80 228.283 80L230.323 80.08C231.656 80.24 232.323 80.5067 232.323 80.88V107.32ZM243.945 107.44C243.945 107.867 242.678 108.08 240.145 108.08C237.585 108.08 236.305 107.88 236.305 107.48V81.4C236.305 80.4667 236.798 80 237.785 80H245.425C252.438 80 255.945 82.7333 255.945 88.2C255.945 89.8533 255.625 91.36 254.985 92.72C254.345 94.0533 253.438 95.12 252.265 95.92L257.305 104.32C257.091 104.96 256.398 105.693 255.225 106.52C253.625 107.667 252.305 108.24 251.265 108.24C250.225 108.24 249.451 107.867 248.945 107.12L245.185 98.36H243.945V107.44ZM243.945 87.08V93.08H244.145C246.678 93.08 247.945 92.0267 247.945 89.92C247.945 88.96 247.691 88.2533 247.185 87.8C246.705 87.32 245.905 87.08 244.785 87.08H243.945ZM262.538 101.12V86.88H259.698C259.245 86.88 258.925 86.3067 258.738 85.16C258.658 84.6 258.618 84.0267 258.618 83.44C258.618 82.8533 258.658 82.28 258.738 81.72C258.925 80.5733 259.245 80 259.698 80H273.138C273.592 80 273.898 80.5733 274.058 81.72C274.165 82.28 274.218 82.8533 274.218 83.44C274.218 84.0267 274.165 84.6 274.058 85.16C273.898 86.3067 273.592 86.88 273.138 86.88H270.458V101.12H273.258C273.712 101.12 274.032 101.693 274.218 102.84C274.325 103.4 274.378 103.973 274.378 104.56C274.378 105.147 274.325 105.72 274.218 106.28C274.032 107.427 273.712 108 273.258 108H259.778C259.325 108 259.018 107.427 258.858 106.28C258.752 105.72 258.698 105.147 258.698 104.56C258.698 103.973 258.752 103.4 258.858 102.84C259.018 101.693 259.325 101.12 259.778 101.12H262.538ZM292.007 80C292.46 80 292.687 81.1867 292.687 83.56C292.687 85.9067 292.46 87.08 292.007 87.08H284.687V91.64H289.567C290.02 91.64 290.247 92.68 290.247 94.76C290.247 96.8133 290.034 97.84 289.607 97.84H284.687V107.48C284.687 107.853 284.18 108.093 283.167 108.2C282.18 108.333 281.354 108.4 280.687 108.4L278.807 108.32C277.5 108.16 276.847 107.893 276.847 107.52V81.04C276.847 80.6133 276.927 80.3333 277.087 80.2C277.274 80.0667 277.54 80 277.887 80H292.007ZM307.954 107.36C307.954 107.893 306.634 108.16 303.994 108.16C301.354 108.16 300.034 107.893 300.034 107.36V87.28H295.234C294.781 87.28 294.461 86.6667 294.274 85.44C294.194 84.8533 294.154 84.2533 294.154 83.64C294.154 83.0267 294.194 82.4267 294.274 81.84C294.461 80.6133 294.781 80 295.234 80H312.634C313.087 80 313.407 80.6133 313.594 81.84C313.674 82.4267 313.714 83.0267 313.714 83.64C313.714 84.2533 313.674 84.8533 313.594 85.44C313.407 86.6667 313.087 87.28 312.634 87.28H307.954V107.36Z" fill="white"/>
<path d="M133.048 93.56L129.961 88.415L119.207 94.8675L130.979 99.192L133.048 93.56ZM136.328 96.04L141.128 92.44L141.128 92.44L136.328 96.04ZM135.248 106.12L131.548 101.397L131.529 101.412L131.509 101.427L135.248 106.12ZM117.888 107.56L113.465 111.614L113.553 111.71L113.645 111.803L117.888 107.56ZM117.568 80.16L113.325 75.9174L113.325 75.9174L117.568 80.16ZM125.128 86.48V80.48H119.128V86.48H125.128ZM125.128 91.72H119.128V97.72H125.128V91.72ZM128.408 87.12L124.422 91.6045L124.482 91.6578L124.543 91.7095L128.408 87.12ZM125.128 96.44V90.44H119.128V96.44H125.128ZM125.128 101.64H119.128V107.64H125.128V101.64ZM128.368 101L132.116 105.685L132.116 105.685L128.368 101ZM128.408 97L124.724 101.736L124.786 101.784L124.849 101.83L128.408 97ZM130.648 87.24C130.648 87.7373 130.549 87.9053 130.534 87.9303C130.519 87.9578 130.415 88.1426 129.961 88.415L136.135 98.705C140.322 96.1929 142.648 92.1447 142.648 87.24H130.648ZM130.979 99.192C131.138 99.2506 131.304 99.3413 131.528 99.64L141.128 92.44C139.592 90.3921 137.571 88.8294 135.117 87.928L130.979 99.192ZM131.528 99.64C131.43 99.5097 131.46 99.4869 131.517 99.7015C131.576 99.9277 131.648 100.353 131.648 101.04H143.648C143.648 98.1693 143.078 95.04 141.128 92.44L131.528 99.64ZM131.648 101.04C131.648 101.198 131.633 101.29 131.625 101.33C131.617 101.367 131.613 101.368 131.623 101.347C131.627 101.338 131.632 101.329 131.637 101.32C131.643 101.312 131.646 101.308 131.646 101.308C131.645 101.309 131.639 101.317 131.624 101.331C131.61 101.345 131.585 101.367 131.548 101.397L138.948 110.843C142.081 108.389 143.648 104.911 143.648 101.04H131.648ZM131.509 101.427C131.397 101.516 130.667 102 128.448 102V114C132.148 114 135.952 113.23 138.986 110.813L131.509 101.427ZM128.448 102H119.008V114H128.448V102ZM119.008 102C119.435 102 119.984 102.071 120.582 102.305C121.189 102.544 121.714 102.901 122.13 103.317L113.645 111.803C115.174 113.331 117.126 114 119.008 114V102ZM122.311 103.506C122.714 103.945 123.019 104.46 123.212 105.004C123.4 105.533 123.448 105.994 123.448 106.32H111.448C111.448 108.06 111.99 110.005 113.465 111.614L122.311 103.506ZM123.448 106.32V80.72H111.448V106.32H123.448ZM123.448 80.72C123.448 80.7966 123.447 81.1397 123.345 81.6172C123.291 81.8668 123.189 82.2524 122.987 82.7022C122.786 83.1475 122.43 83.7827 121.81 84.4026L113.325 75.9174C112.08 77.1627 111.725 78.5714 111.611 79.1028C111.469 79.767 111.448 80.35 111.448 80.72H123.448ZM121.81 84.4026C120.89 85.323 119.9 85.689 119.344 85.8374C118.778 85.9882 118.345 86 118.168 86V74C117.606 74 115.235 74.0078 113.325 75.9174L121.81 84.4026ZM118.168 86H127.288V74H118.168V86ZM127.288 86C129.801 86 130.583 86.5147 130.637 86.5559C130.64 86.5583 130.618 86.5414 130.591 86.5056C130.563 86.4697 130.552 86.4444 130.553 86.447C130.556 86.4538 130.648 86.6713 130.648 87.24H142.648C142.648 83.4309 141.338 79.6623 137.979 77.0641C134.912 74.692 131.015 74 127.288 74V86ZM119.128 86.48V91.72H131.128V86.48H119.128ZM125.128 97.72H125.328V85.72H125.128V97.72ZM125.328 97.72C127.085 97.72 129.452 97.4616 131.536 96.0723C134.049 94.3968 135.168 91.7612 135.168 89.16H123.168C123.168 88.8331 123.232 88.2556 123.561 87.5967C123.903 86.913 124.398 86.4087 124.88 86.0877C125.321 85.7934 125.656 85.7141 125.706 85.7029C125.759 85.6911 125.653 85.72 125.328 85.72V97.72ZM135.168 89.16C135.168 87.2105 134.62 84.5069 132.273 82.5305L124.543 91.7095C123.931 91.1942 123.554 90.5788 123.355 90.0447C123.172 89.5535 123.168 89.2136 123.168 89.16H135.168ZM132.394 82.6355C130.23 80.7117 127.543 80.48 125.968 80.48V92.48C126.2 92.48 126.149 92.5048 125.916 92.4437C125.681 92.3821 125.072 92.1822 124.422 91.6045L132.394 82.6355ZM125.968 80.48H125.128V92.48H125.968V80.48ZM119.128 96.44V101.64H131.128V96.44H119.128ZM125.128 107.64H125.848V95.64H125.128V107.64ZM125.848 107.64C127.511 107.64 130.007 107.373 132.116 105.685L124.62 96.3148C125.175 95.8705 125.667 95.7138 125.861 95.6646C126.05 95.6166 126.073 95.64 125.848 95.64V107.64ZM132.116 105.685C134.547 103.74 135.168 101.006 135.168 98.96H123.168C123.168 98.8762 123.177 98.5014 123.382 97.9795C123.605 97.4116 124.009 96.8034 124.62 96.3148L132.116 105.685ZM135.168 98.96C135.168 97.0821 134.646 94.1436 131.967 92.1697L124.849 101.83C124.083 101.266 123.621 100.55 123.384 99.9392C123.169 99.3864 123.168 99.0032 123.168 98.96H135.168ZM132.091 92.2639C129.966 90.6108 127.427 90.44 125.968 90.44V102.44C126.244 102.44 126.258 102.465 126.096 102.428C125.949 102.394 125.381 102.247 124.724 101.736L132.091 92.2639ZM125.968 90.44H125.128V102.44H125.968V90.44ZM159.598 105.84L163.553 110.352L163.571 110.336L163.588 110.321L159.598 105.84ZM143.158 105.76L139.305 110.36L139.336 110.386L139.368 110.411L143.158 105.76ZM149.478 100.16L146.501 105.369L146.553 105.399L146.605 105.427L149.478 100.16ZM153.038 100.2L150.146 94.9427L150.089 94.9744L150.032 95.0074L153.038 100.2ZM159.838 80.8C159.838 82.1997 159.331 83.4024 158.656 84.2773C158.046 85.0677 157.381 85.4954 157.022 85.6949C156.355 86.0651 155.873 86.125 156.01 86.0997C156.172 86.0697 156.805 86 158.158 86V74C156.631 74 155.103 74.0636 153.825 74.3003C153.242 74.4083 152.22 74.6349 151.194 75.2051C150.231 75.7403 147.838 77.4519 147.838 80.8H159.838ZM158.158 86C159.525 86 160.172 86.0697 160.345 86.1015C160.488 86.1277 160.013 86.0702 159.352 85.7063C158.996 85.5104 158.329 85.0867 157.715 84.2985C157.035 83.4246 156.518 82.2147 156.518 80.8H168.518C168.518 77.4236 166.087 75.7159 165.139 75.1937C164.114 74.6298 163.094 74.4056 162.511 74.2985C161.231 74.0637 159.697 74 158.158 74V86ZM156.518 80.8V99.16H168.518V80.8H156.518ZM156.518 99.16C156.518 100.253 156.214 100.819 155.608 101.359L163.588 110.321C166.875 107.394 168.518 103.507 168.518 99.16H156.518ZM155.642 101.328C155.107 101.798 153.988 102.4 151.518 102.4V114.4C155.928 114.4 160.195 113.296 163.553 110.352L155.642 101.328ZM151.518 102.4C149.165 102.4 147.813 101.813 146.948 101.109L139.368 110.411C142.823 113.227 147.044 114.4 151.518 114.4V102.4ZM147.01 101.16C146.361 100.617 145.958 99.9651 145.958 98.56H133.958C133.958 103.182 135.688 107.33 139.305 110.36L147.01 101.16ZM145.958 98.56V80.84H133.958V98.56H145.958ZM145.958 80.84C145.958 82.2397 145.451 83.4424 144.776 84.3173C144.166 85.1077 143.501 85.5354 143.142 85.7349C142.475 86.1051 141.993 86.165 142.13 86.1397C142.292 86.1097 142.925 86.04 144.278 86.04V74.04C142.751 74.04 141.223 74.1036 139.945 74.3403C139.362 74.4483 138.34 74.6749 137.314 75.2451C136.351 75.7803 133.958 77.4919 133.958 80.84H145.958ZM144.278 86.04C145.645 86.04 146.292 86.1097 146.465 86.1415C146.608 86.1677 146.133 86.1102 145.472 85.7463C145.116 85.5504 144.449 85.1267 143.835 84.3385C143.155 83.4646 142.638 82.2547 142.638 80.84H154.638C154.638 77.4636 152.207 75.7559 151.259 75.2337C150.234 74.6698 149.214 74.4456 148.631 74.3385C147.351 74.1037 145.817 74.04 144.278 74.04V86.04ZM142.638 80.84V98.88H154.638V80.84H142.638ZM142.638 98.88C142.638 102.05 144.533 104.245 146.501 105.369L152.455 94.9505C152.785 95.1393 153.366 95.5493 153.864 96.3081C154.396 97.1181 154.638 98.0325 154.638 98.88H142.638ZM146.605 105.427C148.032 106.206 149.629 106.64 151.318 106.64V94.64C151.504 94.64 151.7 94.664 151.892 94.7143C152.084 94.7642 152.238 94.8312 152.351 94.8926L146.605 105.427ZM151.318 106.64C152.912 106.64 154.54 106.263 156.044 105.393L150.032 95.0074C150.522 94.7233 151.003 94.64 151.318 94.64V106.64ZM155.929 105.457C156.948 104.897 157.998 104.032 158.769 102.76C159.547 101.476 159.838 100.113 159.838 98.88H147.838C147.838 98.2339 147.995 97.3837 148.507 96.5402C149.011 95.7081 149.661 95.2098 150.146 94.9427L155.929 105.457ZM159.838 98.88V80.8H147.838V98.88H159.838ZM179.795 81.32L185.343 83.6045L185.383 83.5075L185.42 83.4091L179.795 81.32ZM187.635 80.08L187.023 86.0487L187.03 86.0495L187.038 86.0502L187.635 80.08ZM189.115 80.48L183.748 77.7967L183.743 77.807L189.115 80.48ZM180.795 97.2L175.423 94.527L174.795 95.7897V97.2H180.795ZM178.595 107.92L177.837 101.968L177.792 101.974L177.746 101.98L178.595 107.92ZM174.235 107.96L173.477 113.912L173.525 113.918L173.572 113.923L174.235 107.96ZM172.035 97.44H178.035V95.9996L177.381 94.7163L172.035 97.44ZM163.435 80.56L168.781 77.8363L168.622 77.5237L168.427 77.2318L163.435 80.56ZM165.075 80.12L165.738 86.0833L165.803 86.076L165.868 86.0674L165.075 80.12ZM173.515 81.32L167.823 83.2174L167.844 83.2797L167.866 83.3415L173.515 81.32ZM176.435 89.48L170.786 91.5015L176.043 106.192L181.983 91.7645L176.435 89.48ZM185.42 83.4091C184.976 84.6025 184.204 85.3147 183.69 85.6649C183.441 85.835 183.235 85.9337 183.114 85.9852C182.992 86.0374 182.92 86.057 182.918 86.0575C182.914 86.0586 182.955 86.0474 183.05 86.031C183.144 86.0149 183.277 85.9963 183.454 85.979C183.812 85.944 184.293 85.92 184.915 85.92V73.92C183.177 73.92 181.364 74.0418 179.752 74.4825C178.439 74.8416 175.4 75.921 174.17 79.2309L185.42 83.4091ZM184.915 85.92C185.427 85.92 186.121 85.9562 187.023 86.0487L188.247 74.1113C187.069 73.9905 185.95 73.92 184.915 73.92V85.92ZM187.038 86.0502C187.518 86.0983 187.496 86.1216 187.24 86.0522C187.229 86.0494 186.452 85.8661 185.595 85.258C185.149 84.9416 184.168 84.1527 183.573 82.7118C182.861 80.9885 183.05 79.1931 183.748 77.7967L194.482 83.1633C195.2 81.7269 195.391 79.8924 194.664 78.1307C194.053 76.6514 193.038 75.825 192.54 75.4719C191.58 74.7905 190.627 74.5372 190.37 74.4678C189.62 74.2651 188.818 74.1684 188.232 74.1098L187.038 86.0502ZM183.743 77.807L175.423 94.527L186.167 99.873L194.487 83.153L183.743 77.807ZM174.795 97.2V106.96H186.795V97.2H174.795ZM174.795 106.96C174.795 105.271 175.537 103.955 176.304 103.146C176.971 102.443 177.627 102.136 177.845 102.041C178.271 101.855 178.398 101.897 177.837 101.968L179.353 113.872C180.259 113.757 181.486 113.545 182.645 113.039C183.422 112.7 186.795 111.043 186.795 106.96H174.795ZM177.746 101.98C177.268 102.049 176.818 102.08 176.395 102.08V114.08C177.412 114.08 178.429 114.005 179.444 113.86L177.746 101.98ZM176.395 102.08C175.898 102.08 175.399 102.052 174.898 101.997L173.572 113.923C174.511 114.028 175.452 114.08 176.395 114.08V102.08ZM174.993 102.008C174.446 101.938 174.608 101.899 175.068 102.108C175.311 102.218 175.972 102.547 176.629 103.275C177.381 104.109 178.035 105.387 178.035 106.96H166.035C166.035 110.892 169.163 112.605 170.102 113.032C171.296 113.575 172.557 113.795 173.477 113.912L174.993 102.008ZM178.035 106.96V97.44H166.035V106.96H178.035ZM177.381 94.7163L168.781 77.8363L158.089 83.2837L166.689 100.164L177.381 94.7163ZM168.427 77.2318C169.285 78.5178 169.815 80.4761 169.068 82.5414C168.467 84.2037 167.329 85.0716 166.908 85.3649C166.401 85.7185 165.961 85.9009 165.777 85.9731C165.558 86.0587 165.392 86.1055 165.32 86.1251C165.126 86.177 165.181 86.1452 165.738 86.0833L164.412 74.1567C163.769 74.2281 162.95 74.3364 162.21 74.5349C161.979 74.597 161.013 74.8464 160.047 75.5201C159.571 75.8517 158.399 76.7584 157.783 78.4598C157.022 80.5643 157.559 82.5622 158.443 83.8882L168.427 77.2318ZM165.868 86.0674C166.914 85.9279 167.644 85.88 168.115 85.88V73.88C166.932 73.88 165.636 73.9921 164.282 74.1726L165.868 86.0674ZM168.115 85.88C168.797 85.88 169.33 85.9053 169.733 85.9434C170.149 85.9827 170.344 86.028 170.379 86.0374C170.447 86.0554 170.11 85.9816 169.626 85.6533C169.096 85.2931 168.259 84.5258 167.823 83.2174L179.207 79.4226C178.023 75.8699 174.735 74.7795 173.471 74.4426C171.824 74.0034 169.946 73.88 168.115 73.88V85.88ZM167.866 83.3415L170.786 91.5015L182.084 87.4585L179.164 79.2985L167.866 83.3415ZM181.983 91.7645L185.343 83.6045L174.247 79.0355L170.887 87.1955L181.983 91.7645ZM194.604 87.28H200.604V81.28H194.604V87.28ZM188.844 85.44L182.899 86.2507L182.906 86.2967L182.913 86.3427L188.844 85.44ZM188.844 81.84L182.913 80.9373L182.906 80.9833L182.899 81.0293L188.844 81.84ZM208.164 81.84L214.109 81.0293L214.103 80.9833L214.096 80.9373L208.164 81.84ZM208.164 85.44L214.096 86.3427L214.103 86.2967L214.109 86.2507L208.164 85.44ZM202.524 87.28V81.28H196.524V87.28H202.524ZM196.524 107.36C196.524 106.095 196.943 104.961 197.564 104.083C198.133 103.278 198.778 102.815 199.167 102.579C199.567 102.336 199.895 102.214 200.053 102.161C200.223 102.104 200.332 102.082 200.346 102.079C200.365 102.075 200.236 102.101 199.894 102.124C199.568 102.145 199.131 102.16 198.564 102.16V114.16C199.98 114.16 201.457 114.097 202.722 113.841C203.304 113.724 204.345 113.472 205.387 112.841C206.469 112.185 208.524 110.446 208.524 107.36H196.524ZM198.564 102.16C197.998 102.16 197.56 102.145 197.235 102.124C196.893 102.101 196.763 102.075 196.782 102.079C196.797 102.082 196.905 102.104 197.076 102.161C197.234 102.214 197.562 102.336 197.962 102.579C198.351 102.815 198.995 103.278 199.565 104.083C200.186 104.961 200.604 106.095 200.604 107.36H188.604C188.604 110.446 190.66 112.185 191.742 112.841C192.784 113.472 193.825 113.724 194.406 113.841C195.671 114.097 197.148 114.16 198.564 114.16V102.16ZM200.604 107.36V87.28H188.604V107.36H200.604ZM194.604 81.28H189.804V93.28H194.604V81.28ZM189.804 81.28C191.167 81.28 192.354 81.7789 193.218 82.464C193.99 83.0762 194.38 83.7311 194.544 84.0446C194.842 84.6156 194.836 84.9294 194.776 84.5373L182.913 86.3427C183.04 87.1773 183.287 88.4111 183.905 89.5954C184.501 90.7375 186.292 93.28 189.804 93.28V81.28ZM194.789 84.6293C194.747 84.3207 194.724 83.9918 194.724 83.64H182.724C182.724 84.5148 182.781 85.3859 182.899 86.2507L194.789 84.6293ZM194.724 83.64C194.724 83.2882 194.747 82.9593 194.789 82.6507L182.899 81.0293C182.781 81.8941 182.724 82.7652 182.724 83.64H194.724ZM194.776 82.7427C194.836 82.3506 194.842 82.6644 194.544 83.2354C194.38 83.5489 193.99 84.2038 193.218 84.816C192.354 85.5011 191.167 86 189.804 86V74C186.292 74 184.501 76.5425 183.905 77.6846C183.287 78.8689 183.04 80.1027 182.913 80.9373L194.776 82.7427ZM189.804 86H207.204V74H189.804V86ZM207.204 86C205.841 86 204.655 85.5011 203.791 84.816C203.019 84.2038 202.628 83.5489 202.465 83.2354C202.167 82.6644 202.173 82.3506 202.233 82.7427L214.096 80.9373C213.969 80.1027 213.722 78.8689 213.104 77.6846C212.508 76.5425 210.717 74 207.204 74V86ZM202.219 82.6507C202.261 82.9593 202.284 83.2882 202.284 83.64H214.284C214.284 82.7652 214.227 81.8941 214.109 81.0293L202.219 82.6507ZM202.284 83.64C202.284 83.9918 202.261 84.3207 202.219 84.6293L214.109 86.2507C214.227 85.3859 214.284 84.5148 214.284 83.64H202.284ZM202.233 84.5373C202.173 84.9294 202.167 84.6156 202.465 84.0446C202.628 83.7311 203.019 83.0762 203.791 82.464C204.655 81.7789 205.841 81.28 207.204 81.28V93.28C210.717 93.28 212.508 90.7375 213.104 89.5954C213.722 88.4111 213.969 87.1773 214.096 86.3427L202.233 84.5373ZM207.204 81.28H202.524V93.28H207.204V81.28ZM196.524 87.28V107.36H208.524V87.28H196.524ZM224.243 98.12H230.243V92.12H224.243V98.12ZM218.643 98.12V92.12H212.643V98.12H218.643ZM218.643 90.2H212.643V96.2H218.643V90.2ZM224.243 90.2V96.2H230.243V90.2H224.243ZM226.243 80.08L225.782 74.0977L225.655 74.1075L225.528 74.1227L226.243 80.08ZM228.283 80L228.518 74.0046L228.4 74H228.283V80ZM230.323 80.08L231.037 74.1227L230.798 74.094L230.558 74.0846L230.323 80.08ZM226.323 107.32C226.323 105.747 226.951 104.462 227.685 103.597C228.34 102.825 229.03 102.431 229.366 102.262C230.005 101.939 230.457 101.89 230.317 101.913C230.153 101.941 229.551 102 228.283 102V114C229.708 114 231.125 113.946 232.308 113.747C232.841 113.657 233.798 113.466 234.774 112.973C235.535 112.589 238.323 110.945 238.323 107.32H226.323ZM228.283 102C227.014 102 226.412 101.941 226.248 101.913C226.108 101.89 226.56 101.939 227.199 102.262C227.535 102.431 228.225 102.825 228.88 103.597C229.614 104.462 230.243 105.747 230.243 107.32H218.243C218.243 110.945 221.03 112.589 221.791 112.973C222.767 113.466 223.724 113.657 224.257 113.747C225.44 113.946 226.857 114 228.283 114V102ZM230.243 107.32V98.12H218.243V107.32H230.243ZM224.243 92.12H218.643V104.12H224.243V92.12ZM212.643 98.12V107.32H224.643V98.12H212.643ZM212.643 107.32C212.643 105.747 213.271 104.462 214.005 103.597C214.66 102.825 215.35 102.431 215.686 102.262C216.325 101.939 216.777 101.89 216.637 101.913C216.473 101.941 215.871 102 214.603 102V114C216.028 114 217.445 113.946 218.628 113.747C219.161 113.657 220.118 113.466 221.094 112.973C221.855 112.589 224.643 110.945 224.643 107.32H212.643ZM214.603 102C213.334 102 212.732 101.941 212.568 101.913C212.428 101.89 212.88 101.939 213.519 102.262C213.855 102.431 214.545 102.825 215.2 103.597C215.934 104.462 216.563 105.747 216.563 107.32H204.563C204.563 110.945 207.35 112.589 208.111 112.973C209.087 113.466 210.044 113.657 210.577 113.747C211.76 113.946 213.177 114 214.603 114V102ZM216.563 107.32V80.8H204.563V107.32H216.563ZM216.563 80.8C216.563 82.0197 216.171 83.1272 215.571 84.0009C215.017 84.8065 214.384 85.2777 213.99 85.5233C213.589 85.7739 213.257 85.9013 213.095 85.9574C212.921 86.0177 212.81 86.041 212.794 86.0444C212.772 86.0488 212.902 86.0222 213.25 85.9981C213.58 85.9752 214.026 85.96 214.603 85.96V73.96C213.157 73.96 211.646 74.0264 210.351 74.2956C209.753 74.42 208.693 74.6845 207.64 75.3417C206.518 76.0413 204.563 77.7925 204.563 80.8H216.563ZM214.603 85.96C215.179 85.96 215.625 85.9752 215.955 85.9981C216.303 86.0222 216.433 86.0488 216.411 86.0444C216.395 86.041 216.284 86.0177 216.11 85.9574C215.948 85.9013 215.616 85.7739 215.215 85.5233C214.821 85.2777 214.188 84.8065 213.634 84.0009C213.034 83.1272 212.643 82.0197 212.643 80.8H224.643C224.643 77.7925 222.687 76.0413 221.565 75.3417C220.512 74.6845 219.452 74.42 218.854 74.2956C217.559 74.0264 216.048 73.96 214.603 73.96V85.96ZM212.643 80.8V90.2H224.643V80.8H212.643ZM218.643 96.2H224.243V84.2H218.643V96.2ZM230.243 90.2V80.88H218.243V90.2H230.243ZM230.243 80.88C230.243 82.7929 229.319 84.1837 228.523 84.9483C227.828 85.6148 227.167 85.8926 226.971 85.9709C226.566 86.1329 226.443 86.099 226.957 86.0373L225.528 74.1227C224.709 74.221 223.586 74.4005 222.514 74.8291C221.985 75.0408 221.073 75.4652 220.212 76.2917C219.249 77.2163 218.243 78.7805 218.243 80.88H230.243ZM226.703 86.0623C227.249 86.0203 227.776 86 228.283 86V74C227.456 74 226.622 74.0331 225.782 74.0977L226.703 86.0623ZM228.047 85.9954L230.087 86.0754L230.558 74.0846L228.518 74.0046L228.047 85.9954ZM229.608 86.0373C230.122 86.099 229.999 86.1329 229.594 85.9709C229.398 85.8926 228.737 85.6148 228.042 84.9483C227.246 84.1837 226.323 82.7929 226.323 80.88H238.323C238.323 78.7805 237.316 77.2163 236.353 76.2917C235.492 75.4652 234.58 75.0408 234.051 74.8291C232.979 74.4005 231.856 74.221 231.037 74.1227L229.608 86.0373ZM226.323 80.88V107.32H238.323V80.88H226.323ZM254.985 92.72L260.394 95.3164L260.404 95.2956L260.414 95.2748L254.985 92.72ZM252.265 95.92L248.885 90.9626L244.207 94.1521L247.12 99.007L252.265 95.92ZM257.305 104.32L262.997 106.217L263.869 103.599L262.45 101.233L257.305 104.32ZM255.225 106.52L251.769 101.615L251.749 101.629L251.73 101.643L255.225 106.52ZM248.945 107.12L243.431 109.487L243.658 110.014L243.98 110.489L248.945 107.12ZM245.185 98.36L250.698 95.9934L249.139 92.36H245.185V98.36ZM243.945 98.36V92.36H237.945V98.36H243.945ZM243.945 87.08V81.08H237.945V87.08H243.945ZM243.945 93.08H237.945V99.08H243.945V93.08ZM247.185 87.8L242.942 92.0426L243.06 92.1604L243.184 92.2715L247.185 87.8ZM237.945 107.44C237.945 105.865 238.573 104.577 239.31 103.709C239.967 102.934 240.66 102.537 241.001 102.365C241.374 102.177 241.666 102.088 241.789 102.053C241.861 102.033 241.916 102.02 241.948 102.013C241.98 102.006 241.998 102.003 241.998 102.003C241.999 102.003 241.988 102.005 241.963 102.008C241.938 102.012 241.903 102.016 241.857 102.02C241.763 102.03 241.636 102.04 241.471 102.049C241.137 102.068 240.7 102.08 240.145 102.08V114.08C241.49 114.08 242.848 114.029 243.991 113.837C244.504 113.75 245.446 113.564 246.413 113.075C247.165 112.695 249.945 111.056 249.945 107.44H237.945ZM240.145 102.08C238.937 102.08 238.356 102.028 238.191 102.002C238.048 101.98 238.476 102.021 239.091 102.31C239.406 102.457 240.109 102.824 240.793 103.572C241.565 104.417 242.305 105.761 242.305 107.48H230.305C230.305 111.326 233.425 112.907 233.998 113.175C234.934 113.614 235.841 113.78 236.338 113.858C237.454 114.032 238.792 114.08 240.145 114.08V102.08ZM242.305 107.48V81.4H230.305V107.48H242.305ZM242.305 81.4C242.305 81.946 242.144 83.4353 240.798 84.7088C239.514 85.9231 238.136 86 237.785 86V74C236.447 74 234.329 74.3102 232.551 75.9912C230.712 77.7313 230.305 79.9207 230.305 81.4H242.305ZM237.785 86H245.425V74H237.785V86ZM245.425 86C248.317 86 249.382 86.5917 249.626 86.7822C249.7 86.8399 249.73 86.8767 249.77 86.9717C249.827 87.1029 249.945 87.4659 249.945 88.2H261.945C261.945 84.0875 260.55 80.0821 257.003 77.3178C253.741 74.7749 249.546 74 245.425 74V86ZM249.945 88.2C249.945 89.0594 249.783 89.6814 249.556 90.1652L260.414 95.2748C261.466 93.0385 261.945 90.6473 261.945 88.2H249.945ZM249.576 90.1236C249.373 90.5463 249.149 90.7826 248.885 90.9626L255.645 100.877C257.727 99.4574 259.317 97.5604 260.394 95.3164L249.576 90.1236ZM247.12 99.007L252.16 107.407L262.45 101.233L257.41 92.833L247.12 99.007ZM251.613 102.423C251.757 101.99 251.933 101.686 252.047 101.512C252.163 101.337 252.251 101.243 252.265 101.228C252.281 101.21 252.256 101.24 252.167 101.314C252.08 101.386 251.951 101.487 251.769 101.615L258.68 111.425C259.945 110.534 262.121 108.844 262.997 106.217L251.613 102.423ZM251.73 101.643C251.158 102.053 250.802 102.238 250.644 102.307C250.573 102.338 250.588 102.325 250.681 102.302C250.774 102.279 250.976 102.24 251.265 102.24V114.24C254.26 114.24 256.878 112.717 258.72 111.397L251.73 101.643ZM251.265 102.24C251.46 102.24 251.933 102.276 252.513 102.557C253.126 102.853 253.601 103.297 253.91 103.751L243.98 110.489C245.787 113.152 248.588 114.24 251.265 114.24V102.24ZM254.458 104.753L250.698 95.9934L239.671 100.727L243.431 109.487L254.458 104.753ZM245.185 92.36H243.945V104.36H245.185V92.36ZM237.945 98.36V107.44H249.945V98.36H237.945ZM237.945 87.08V93.08H249.945V87.08H237.945ZM243.945 99.08H244.145V87.08H243.945V99.08ZM244.145 99.08C246.094 99.08 248.673 98.6975 250.831 96.9033C253.201 94.9329 253.945 92.2191 253.945 89.92H241.945C241.945 89.8577 241.953 89.5317 242.138 89.0701C242.338 88.5718 242.683 88.0724 243.158 87.6767C244.049 86.9358 244.728 87.08 244.145 87.08V99.08ZM253.945 89.92C253.945 87.9773 253.419 85.3272 251.185 83.3285L243.184 92.2715C241.964 91.1795 241.945 89.9427 241.945 89.92H253.945ZM251.427 83.5574C249.279 81.409 246.514 81.08 244.785 81.08V93.08C244.946 93.08 244.813 93.1008 244.501 93.007C244.166 92.9065 243.548 92.6488 242.942 92.0426L251.427 83.5574ZM244.785 81.08H243.945V93.08H244.785V81.08ZM262.538 101.12V107.12H268.538V101.12H262.538ZM262.538 86.88H268.538V80.88H262.538V86.88ZM258.738 85.16L252.799 86.0085L252.807 86.0664L252.816 86.1241L258.738 85.16ZM258.738 81.72L252.816 80.7559L252.807 80.8136L252.799 80.8715L258.738 81.72ZM274.058 81.72L268.116 82.5492L268.137 82.6965L268.164 82.8427L274.058 81.72ZM274.058 85.16L268.164 84.0373L268.137 84.1835L268.116 84.3308L274.058 85.16ZM270.458 86.88V80.88H264.458V86.88H270.458ZM270.458 101.12H264.458V107.12H270.458V101.12ZM274.218 102.84L268.296 103.804L268.309 103.884L268.324 103.963L274.218 102.84ZM274.218 106.28L268.324 105.157L268.309 105.236L268.296 105.316L274.218 106.28ZM258.858 106.28L264.801 105.451L264.78 105.303L264.752 105.157L258.858 106.28ZM258.858 102.84L264.752 103.963L264.78 103.817L264.801 103.669L258.858 102.84ZM268.538 101.12V86.88H256.538V101.12H268.538ZM262.538 80.88H259.698V92.88H262.538V80.88ZM259.698 80.88C260.954 80.88 262.088 81.3083 262.957 81.9526C263.744 82.5366 264.165 83.1811 264.358 83.5258C264.704 84.1455 264.714 84.5261 264.66 84.1959L252.816 86.1241C252.949 86.9406 253.213 88.1811 253.879 89.3742C254.572 90.6149 256.396 92.88 259.698 92.88V80.88ZM264.678 84.3115C264.64 84.0427 264.618 83.7532 264.618 83.44H252.618C252.618 84.3001 252.677 85.1573 252.799 86.0085L264.678 84.3115ZM264.618 83.44C264.618 83.1268 264.64 82.8373 264.678 82.5685L252.799 80.8715C252.677 81.7227 252.618 82.5799 252.618 83.44H264.618ZM264.66 82.6841C264.714 82.3539 264.704 82.7345 264.358 83.3542C264.165 83.6989 263.744 84.3434 262.957 84.9274C262.088 85.5717 260.954 86 259.698 86V74C256.396 74 254.572 76.2651 253.879 77.5058C253.213 78.6989 252.949 79.9394 252.816 80.7559L264.66 82.6841ZM259.698 86H273.138V74H259.698V86ZM273.138 86C271.88 86 270.728 85.569 269.838 84.8974C269.033 84.2902 268.61 83.619 268.418 83.2599C268.073 82.6156 268.07 82.2176 268.116 82.5492L280.001 80.8908C279.887 80.0757 279.65 78.8177 278.999 77.6001C278.311 76.3136 276.481 74 273.138 74V86ZM268.164 82.8427C268.199 83.022 268.218 83.2191 268.218 83.44H280.218C280.218 82.4876 280.132 81.538 279.952 80.5973L268.164 82.8427ZM268.218 83.44C268.218 83.6609 268.199 83.858 268.164 84.0373L279.952 86.2827C280.132 85.342 280.218 84.3924 280.218 83.44H268.218ZM268.116 84.3308C268.07 84.6624 268.073 84.2644 268.418 83.6201C268.61 83.261 269.033 82.5898 269.838 81.9826C270.728 81.311 271.88 80.88 273.138 80.88V92.88C276.481 92.88 278.311 90.5664 278.999 89.2799C279.65 88.0623 279.887 86.8043 280.001 85.9892L268.116 84.3308ZM273.138 80.88H270.458V92.88H273.138V80.88ZM264.458 86.88V101.12H276.458V86.88H264.458ZM270.458 107.12H273.258V95.12H270.458V107.12ZM273.258 107.12C272.003 107.12 270.869 106.692 270 106.047C269.212 105.463 268.792 104.819 268.599 104.474C268.253 103.854 268.243 103.474 268.296 103.804L280.14 101.876C280.008 101.059 279.744 99.8189 279.078 98.6258C278.385 97.3851 276.561 95.12 273.258 95.12V107.12ZM268.324 103.963C268.359 104.142 268.378 104.339 268.378 104.56H280.378C280.378 103.608 280.292 102.658 280.112 101.717L268.324 103.963ZM268.378 104.56C268.378 104.781 268.359 104.978 268.324 105.157L280.112 107.403C280.292 106.462 280.378 105.512 280.378 104.56H268.378ZM268.296 105.316C268.243 105.646 268.253 105.266 268.599 104.646C268.792 104.301 269.212 103.657 270 103.073C270.869 102.428 272.003 102 273.258 102V114C276.561 114 278.385 111.735 279.078 110.494C279.744 109.301 280.008 108.061 280.14 107.244L268.296 105.316ZM273.258 102H259.778V114H273.258V102ZM259.778 102C261.037 102 262.189 102.431 263.079 103.103C263.884 103.71 264.307 104.381 264.499 104.74C264.844 105.384 264.847 105.782 264.801 105.451L252.916 107.109C253.03 107.924 253.266 109.182 253.918 110.4C254.606 111.686 256.435 114 259.778 114V102ZM264.752 105.157C264.718 104.978 264.698 104.781 264.698 104.56H252.698C252.698 105.512 252.785 106.462 252.964 107.403L264.752 105.157ZM264.698 104.56C264.698 104.339 264.718 104.142 264.752 103.963L252.964 101.717C252.785 102.658 252.698 103.608 252.698 104.56H264.698ZM264.801 103.669C264.847 103.338 264.844 103.736 264.499 104.38C264.307 104.739 263.884 105.41 263.079 106.017C262.189 106.689 261.037 107.12 259.778 107.12V95.12C256.435 95.12 254.606 97.4336 253.918 98.7201C253.266 99.9377 253.03 101.196 252.916 102.011L264.801 103.669ZM259.778 107.12H262.538V95.12H259.778V107.12ZM284.687 87.08V81.08H278.687V87.08H284.687ZM284.687 91.64H278.687V97.64H284.687V91.64ZM284.687 97.84V91.84H278.687V97.84H284.687ZM283.167 108.2L282.539 102.233L282.451 102.242L282.363 102.254L283.167 108.2ZM280.687 108.4L280.432 114.395L280.559 114.4H280.687V108.4ZM278.807 108.32L278.078 114.276L278.314 114.304L278.552 114.315L278.807 108.32ZM277.087 80.2L273.599 75.3176L273.418 75.4475L273.246 75.5907L277.087 80.2ZM292.007 86C289 86 287.492 83.8927 287.099 83.2056C286.869 82.8053 286.754 82.4782 286.704 82.3207C286.649 82.1495 286.628 82.038 286.623 82.0157C286.617 81.9807 286.637 82.0829 286.657 82.3837C286.675 82.6683 286.687 83.0552 286.687 83.56H298.687C298.687 82.2831 298.633 80.9321 298.41 79.7643C298.309 79.2348 298.087 78.2453 297.51 77.2394C296.947 76.2556 295.241 74 292.007 74V86ZM286.687 83.56C286.687 84.0572 286.675 84.4366 286.657 84.7144C286.638 85.0086 286.618 85.1038 286.626 85.062C286.631 85.0362 286.654 84.921 286.71 84.7461C286.762 84.5849 286.88 84.2544 287.113 83.8515C287.523 83.1449 289.034 81.08 292.007 81.08V93.08C295.206 93.08 296.916 90.8684 297.496 89.8685C298.08 88.8603 298.306 87.8678 298.408 87.338C298.633 86.1708 298.687 84.8247 298.687 83.56H286.687ZM292.007 81.08H284.687V93.08H292.007V81.08ZM278.687 87.08V91.64H290.687V87.08H278.687ZM284.687 97.64H289.567V85.64H284.687V97.64ZM289.567 97.64C288.399 97.64 287.317 97.2838 286.437 96.7069C285.617 96.1696 285.118 95.5405 284.843 95.1185C284.34 94.3505 284.219 93.7168 284.214 93.6977C284.186 93.5688 284.247 93.8247 284.247 94.76H296.247C296.247 93.6153 296.194 92.3112 295.939 91.1423C295.822 90.6032 295.558 89.5795 294.886 88.5515C294.145 87.4179 292.412 85.64 289.567 85.64V97.64ZM284.247 94.76C284.247 95.6875 284.19 95.9571 284.212 95.8493C284.213 95.8446 284.323 95.2301 284.795 94.4735C285.309 93.6492 286.844 91.84 289.607 91.84V103.84C292.583 103.84 294.305 101.902 294.979 100.822C295.61 99.8082 295.854 98.8087 295.961 98.2907C296.197 97.1562 296.247 95.8858 296.247 94.76H284.247ZM289.607 91.84H284.687V103.84H289.607V91.84ZM278.687 97.84V107.48H290.687V97.84H278.687ZM278.687 107.48C278.687 106.083 279.204 104.836 279.966 103.914C280.643 103.094 281.374 102.69 281.738 102.518C282.406 102.201 282.829 102.202 282.539 102.233L283.795 114.167C284.518 114.091 285.701 113.919 286.875 113.362C288.039 112.811 290.687 111.058 290.687 107.48H278.687ZM282.363 102.254C281.527 102.367 280.989 102.4 280.687 102.4V114.4C281.718 114.4 282.834 114.3 283.97 114.146L282.363 102.254ZM280.942 102.405L279.062 102.325L278.552 114.315L280.432 114.395L280.942 102.405ZM279.536 102.364C279.039 102.304 279.182 102.273 279.604 102.445C279.811 102.529 280.476 102.816 281.168 103.494C281.962 104.272 282.847 105.651 282.847 107.52H270.847C270.847 111.8 274.57 113.351 275.069 113.555C276.145 113.994 277.268 114.176 278.078 114.276L279.536 102.364ZM282.847 107.52V81.04H270.847V107.52H282.847ZM282.847 81.04C282.847 81.1506 282.842 81.5764 282.676 82.1583C282.512 82.7311 282.075 83.8538 280.928 84.8093L273.246 75.5907C271.939 76.6795 271.381 78.0089 271.138 78.8617C270.891 79.7236 270.847 80.5027 270.847 81.04H282.847ZM280.574 85.0824C279.344 85.9615 278.188 86 277.887 86V74C276.892 74 275.203 74.1719 273.599 75.3176L280.574 85.0824ZM277.887 86H292.007V74H277.887V86ZM300.034 87.28H306.034V81.28H300.034V87.28ZM294.274 85.44L288.329 86.2507L288.335 86.2967L288.342 86.3427L294.274 85.44ZM294.274 81.84L288.342 80.9373L288.335 80.9833L288.329 81.0293L294.274 81.84ZM313.594 81.84L319.539 81.0293L319.533 80.9833L319.526 80.9373L313.594 81.84ZM313.594 85.44L319.526 86.3427L319.533 86.2967L319.539 86.2507L313.594 85.44ZM307.954 87.28V81.28H301.954V87.28H307.954ZM301.954 107.36C301.954 106.095 302.372 104.961 302.993 104.083C303.563 103.278 304.208 102.815 304.597 102.579C304.997 102.336 305.325 102.214 305.483 102.161C305.653 102.104 305.761 102.082 305.776 102.079C305.795 102.075 305.666 102.101 305.323 102.124C304.998 102.145 304.56 102.16 303.994 102.16V114.16C305.41 114.16 306.887 114.097 308.152 113.841C308.734 113.724 309.775 113.472 310.816 112.841C311.899 112.185 313.954 110.446 313.954 107.36H301.954ZM303.994 102.16C303.428 102.16 302.99 102.145 302.665 102.124C302.322 102.101 302.193 102.075 302.212 102.079C302.227 102.082 302.335 102.104 302.506 102.161C302.663 102.214 302.991 102.336 303.391 102.579C303.781 102.815 304.425 103.278 304.995 104.083C305.616 104.961 306.034 106.095 306.034 107.36H294.034C294.034 110.446 296.089 112.185 297.172 112.841C298.213 113.472 299.255 113.724 299.836 113.841C301.101 114.097 302.578 114.16 303.994 114.16V102.16ZM306.034 107.36V87.28H294.034V107.36H306.034ZM300.034 81.28H295.234V93.28H300.034V81.28ZM295.234 81.28C296.597 81.28 297.784 81.7789 298.647 82.464C299.419 83.0762 299.81 83.7311 299.974 84.0446C300.271 84.6156 300.265 84.9294 300.206 84.5373L288.342 86.3427C288.469 87.1773 288.717 88.4111 289.335 89.5954C289.93 90.7375 291.722 93.28 295.234 93.28V81.28ZM300.219 84.6293C300.177 84.3207 300.154 83.9918 300.154 83.64H288.154C288.154 84.5148 288.211 85.3859 288.329 86.2507L300.219 84.6293ZM300.154 83.64C300.154 83.2882 300.177 82.9593 300.219 82.6507L288.329 81.0293C288.211 81.8941 288.154 82.7652 288.154 83.64H300.154ZM300.206 82.7427C300.265 82.3506 300.271 82.6644 299.974 83.2354C299.81 83.5489 299.419 84.2038 298.647 84.816C297.784 85.5011 296.597 86 295.234 86V74C291.722 74 289.93 76.5425 289.335 77.6846C288.717 78.8689 288.469 80.1027 288.342 80.9373L300.206 82.7427ZM295.234 86H312.634V74H295.234V86ZM312.634 86C311.271 86 310.084 85.5011 309.221 84.816C308.449 84.2038 308.058 83.5489 307.895 83.2354C307.597 82.6644 307.603 82.3506 307.662 82.7427L319.526 80.9373C319.399 80.1027 319.151 78.8689 318.534 77.6846C317.938 76.5425 316.146 74 312.634 74V86ZM307.649 82.6507C307.691 82.9593 307.714 83.2882 307.714 83.64H319.714C319.714 82.7652 319.657 81.8941 319.539 81.0293L307.649 82.6507ZM307.714 83.64C307.714 83.9918 307.691 84.3207 307.649 84.6293L319.539 86.2507C319.657 85.3859 319.714 84.5148 319.714 83.64H307.714ZM307.662 84.5373C307.603 84.9294 307.597 84.6156 307.895 84.0446C308.058 83.7311 308.449 83.0762 309.221 82.464C310.084 81.7789 311.271 81.28 312.634 81.28V93.28C316.146 93.28 317.938 90.7375 318.534 89.5954C319.151 88.4111 319.399 87.1773 319.526 86.3427L307.662 84.5373ZM312.634 81.28H307.954V93.28H312.634V81.28ZM301.954 87.28V107.36H313.954V87.28H301.954Z" fill="black" mask="url(#path-5-outside-1_1_22)"/>
</svg>
