<svg width="48" height="48" viewBox="0 0 48 48" fill="none" xmlns="http://www.w3.org/2000/svg">
<path d="M40 36C42.2 36 44 34.2 44 32V8C44 5.8 42.2 4 40 4H8C5.8 4 4 5.8 4 8V44L12 36H40ZM6 39.172V8C6 6.897 6.897 6 8 6H40C41.103 6 42 6.897 42 8V32C42 33.103 41.103 34 40 34H11.172L6 39.172Z" fill="black"/>
<path d="M24 22C25.1046 22 26 21.1046 26 20C26 18.8954 25.1046 18 24 18C22.8954 18 22 18.8954 22 20C22 21.1046 22.8954 22 24 22Z" fill="black"/>
<path d="M32 22C33.1046 22 34 21.1046 34 20C34 18.8954 33.1046 18 32 18C30.8954 18 30 18.8954 30 20C30 21.1046 30.8954 22 32 22Z" fill="black"/>
<path d="M16 22C17.1046 22 18 21.1046 18 20C18 18.8954 17.1046 18 16 18C14.8954 18 14 18.8954 14 20C14 21.1046 14.8954 22 16 22Z" fill="black"/>
</svg>
